<?xml version="1.0" encoding="utf-8"?>
<!-- Generator: Adobe Illustrator 22.1.0, SVG Export Plug-In . SVG Version: 6.00 Build 0)  -->
<svg version="1.1" id="Layer_1" xmlns="http://www.w3.org/2000/svg" xmlns:xlink="http://www.w3.org/1999/xlink" x="0px" y="0px"
	 viewBox="0 0 32 32" style="enable-background:new 0 0 32 32;" xml:space="preserve">
<style type="text/css">
	.st0{fill:#E90000;}
	.st1{fill:#FFFFFF;}
</style>
<g>
	<rect class="st0" width="32" height="32"/>
	<path class="st1" d="M26.5,26.4H32v-2.8h-5.5V26.4z M12,20.9L12,20.9l-3.6-8H5.6v13.4H8v-8.7h0l3.9,8.7h2.5V13H12V20.9z M22.9,19.2
		c1.1-0.7,1.7-1.6,1.7-2.8c0-2.3-1.6-3.5-4.3-3.5h-3.6v13.4h3.8c2.7,0,4.5-1.2,4.5-3.9C24.9,20.8,24.3,20.1,22.9,19.2z M19.2,15.1h1
		c1.2,0,1.8,0.6,1.8,1.6c0,0.9-0.8,1.6-1.9,1.6h-0.9V15.1z M20.3,24.3h-1.1v-3.9h0.9c1.3,0,2.2,0.6,2.2,1.9
		C22.3,23.5,21.6,24.3,20.3,24.3z"/>
</g>
</svg>
